<svg width="155" height="40" viewBox="0 0 155 40" fill="none" xmlns="http://www.w3.org/2000/svg">
<g clip-path="url(#clip0_589_37617)">
<path d="M90.3184 18.2V11.9066H91.509L94.2305 16.1589V11.9066H95.4211V18.2283H94.2305L91.5657 14.0611V18.2283H90.3184V18.2Z" fill="white"/>
<path d="M96.2178 18.2L98.4573 11.8782H99.6196L101.888 18.2H100.612L100.187 16.9243H97.8903L97.4935 18.2H96.2178ZM98.2305 15.8754H99.8748L99.0526 13.4091L98.2305 15.8754Z" fill="white"/>
<path d="M103.276 18.2V12.9838H101.632V11.9066H106.168V13.0122H104.495V18.2H103.276Z" fill="white"/>
<path d="M107.072 18.2V11.9066H108.291V18.2283H107.072V18.2Z" fill="white"/>
<path d="M112.489 18.2851C111.639 18.3134 110.845 17.9732 110.25 17.3779C109.655 16.7543 109.371 15.9038 109.399 15.0533C109.371 14.2029 109.683 13.3524 110.25 12.7287C111.497 11.5381 113.453 11.5381 114.701 12.7287C115.296 13.3524 115.608 14.2029 115.579 15.0817C115.608 15.9321 115.296 16.7826 114.701 17.4063C114.134 17.9732 113.34 18.3134 112.489 18.2851ZM112.489 17.0944C113 17.0944 113.453 16.896 113.793 16.4991C114.474 15.6203 114.474 14.4013 113.793 13.5508C113.141 12.8138 112.036 12.7571 111.299 13.4091C111.242 13.4658 111.185 13.4942 111.157 13.5508C110.477 14.4013 110.477 15.6203 111.157 16.4991C111.497 16.896 111.979 17.1228 112.489 17.0944Z" fill="white"/>
<path d="M116.651 18.2V11.9066H117.842L120.563 16.1589V11.9066H121.754V18.2283H120.563L117.87 14.0611V18.2283H116.651V18.2Z" fill="white"/>
<path d="M122.55 18.2L124.789 11.8782H125.952L128.22 18.2H126.972L126.519 16.9243H124.194L123.797 18.2H122.55ZM124.534 15.8754H126.178L125.356 13.4091L124.534 15.8754Z" fill="white"/>
<path d="M128.987 18.2V11.9066H130.206V17.0944H132.871V18.2H128.987Z" fill="white"/>
<path d="M69.5391 28.0937L71.7786 21.772H72.9126L75.1805 28.0937H73.9331L73.5079 26.818H71.1833L70.7864 28.0937H69.5391ZM71.5518 25.7691H73.196L72.3739 23.3028L71.5518 25.7691Z" fill="white"/>
<path d="M76.9954 28.0937L74.7275 21.772H76.0316L77.5057 26.3078L78.9798 21.772H80.2555L78.016 28.0937H76.9954Z" fill="white"/>
<path d="M81.1309 28.0937V21.772H82.3498V28.0937H81.1309Z" fill="white"/>
<path d="M83.2041 28.0937L85.4436 21.772H86.6059L88.8738 28.0937H87.6265L87.2013 26.818H84.8483L84.4514 28.0937H83.2041ZM85.2169 25.7691H86.8611L86.039 23.3028L85.2169 25.7691Z" fill="white"/>
<path d="M90.2624 28.0937V22.8776H88.6182V21.772H93.154V22.8776H91.4814V28.0937H90.2624Z" fill="white"/>
<path d="M94.0586 28.0937V21.772H95.2776V28.0937H94.0586Z" fill="white"/>
<path d="M99.4738 28.1788C98.6233 28.2071 97.8296 27.867 97.2342 27.2716C96.1003 25.9392 96.1003 23.9548 97.2342 22.6224C98.4816 21.4318 100.438 21.4318 101.685 22.6224C102.847 23.9548 102.847 25.9676 101.685 27.3C101.118 27.867 100.296 28.2071 99.4738 28.1788ZM99.4738 26.9881C99.9841 26.9881 100.438 26.7897 100.778 26.4212C101.458 25.5424 101.458 24.3234 100.778 23.4729C100.126 22.7358 99.0202 22.6791 98.2832 23.3312C98.2265 23.3879 98.1698 23.4162 98.1414 23.4729C97.461 24.3234 97.461 25.5424 98.1414 26.4212C98.4816 26.7897 98.9635 27.0165 99.4738 26.9881Z" fill="white"/>
<path d="M103.611 28.0937V21.772H104.802L107.523 26.0243V21.772H108.714V28.0937H107.523L104.83 23.9265V28.0937H103.611Z" fill="white"/>
<path d="M111.722 28.0937L113.961 21.772H115.124L117.391 28.0937H116.144L115.719 26.818H113.394L112.997 28.0937H111.722ZM113.706 25.7691H115.35L114.528 23.3028L113.706 25.7691Z" fill="white"/>
<path d="M120.679 28.1504C119.857 28.1787 119.063 27.8669 118.468 27.2999C117.844 26.6762 117.504 25.8258 117.561 24.947C117.532 24.0965 117.816 23.2744 118.383 22.6224C118.978 21.9987 119.8 21.6585 120.651 21.7152C121.104 21.7152 121.558 21.8286 121.955 22.0271C122.38 22.2255 122.777 22.5373 123.06 22.9342L122.153 23.6996C121.813 23.1894 121.246 22.9059 120.622 22.9059C120.141 22.9059 119.659 23.1043 119.318 23.4728C118.95 23.8981 118.78 24.4367 118.808 24.9753C118.78 25.5139 118.978 26.0242 119.318 26.4211C119.659 26.7896 120.141 27.0164 120.651 26.9881C121.246 26.9881 121.841 26.6762 122.182 26.1943L123.06 26.9881C122.493 27.7251 121.615 28.1787 120.679 28.1504Z" fill="white"/>
<path d="M123.46 28.0937L125.7 21.772H126.862L129.13 28.0937H127.854L127.429 26.818H125.133L124.736 28.0937H123.46ZM125.473 25.7691H127.117L126.295 23.3028L125.473 25.7691Z" fill="white"/>
<path d="M129.891 28.0937V21.772H131.903C132.754 21.7436 133.576 22.0555 134.171 22.6508C134.738 23.2745 135.05 24.0682 135.022 24.9187C135.05 25.7691 134.767 26.5629 134.171 27.1866C133.576 27.7819 132.754 28.0937 131.903 28.0654L129.891 28.0937ZM131.081 26.9881H131.847C132.385 27.0165 132.896 26.7897 133.264 26.4212C133.633 26.0243 133.831 25.4857 133.803 24.947C133.831 24.4084 133.633 23.8698 133.264 23.4729C132.924 23.076 132.414 22.8776 131.903 22.8776H131.081V26.9881Z" fill="white"/>
<path d="M136.102 28.0937V21.772H139.985V22.8776H137.292V24.4084H139.447V25.514H137.292V26.9881H140.155V28.0937H136.102Z" fill="white"/>
<path d="M141.23 28.0937V21.772H142.421L144.292 25.3723L146.163 21.772H147.354V28.0937H146.163V24.1816L144.689 26.8747H143.924L142.449 24.1533V28.0654L141.23 28.0937Z" fill="white"/>
<path d="M150.106 28.0937V25.3156L148.093 21.772H149.454L150.701 24.0399L151.92 21.772H153.309L151.296 25.3156V28.0937H150.106Z" fill="white"/>
<path d="M35.2683 39.5466C29.9104 39.5466 24.7793 37.3354 21.094 33.4516L20.8389 33.1681L54.262 24.7769L54.1486 25.1454C51.7956 33.6501 44.0564 39.5182 35.2683 39.5466ZM21.661 33.4233C29.0883 40.9357 41.1932 40.9924 48.7056 33.565C51.0019 31.2971 52.6744 28.4906 53.5816 25.4006L21.661 33.4233Z" fill="white"/>
<path d="M18.2555 29.6811L18.1421 29.4543C16.5546 26.5628 15.7041 23.3027 15.7041 19.9859C15.7041 19.3339 15.7325 18.6818 15.7891 18.0298L15.8175 17.6613L16.1293 17.8881C17.32 18.7102 18.1988 19.3339 18.4823 19.5606C19.3044 20.241 21.7424 22.3388 21.4022 24.9469C21.2321 26.1375 20.7218 27.2431 19.9564 28.1503C19.5312 28.6889 19.0209 29.1425 18.4823 29.5677L18.2555 29.6811ZM16.186 18.455C16.1577 18.9653 16.1293 19.4756 16.1293 19.9859C16.1293 23.1326 16.9231 26.2226 18.3972 29.0008C18.8225 28.6606 19.2193 28.2637 19.5879 27.8385C20.3249 26.988 20.7785 25.9675 20.9486 24.8619C21.2604 22.5089 18.9359 20.5529 18.1988 19.9008C17.9436 19.6457 17.2066 19.1354 16.186 18.455Z" fill="white"/>
<path fill-rule="evenodd" clip-rule="evenodd" d="M2.21191 8.5614L66.5918 20.6946L11.2551 34.5855C11.2551 34.5855 14.2318 33.3665 15.3374 32.7428C16.443 32.0908 18.0305 31.0419 18.7959 30.4749C19.5613 29.908 21.9709 28.122 22.3678 25.032C22.7647 21.942 20.0149 19.589 19.1077 18.7953C18.2006 18.0015 11.2551 13.409 9.24239 12.4452C7.34303 11.1695 2.21191 8.5614 2.21191 8.5614Z" stroke="white" stroke-width="0.851064" stroke-miterlimit="15"/>
<path d="M66.5902 20.6946L20.6653 32.2325C18.9077 32.4026 17.1785 32.5443 15.4775 32.6861C16.5831 32.0341 18.0856 31.0419 18.7943 30.4749C19.2479 30.1347 20.3252 29.3409 21.1756 28.0936C35.0098 25.9107 48.7872 23.2176 62.4797 19.9292L66.5902 20.6946Z" fill="white"/>
<path d="M22.3715 25.0036C22.4849 24.1815 22.3715 23.4161 22.1164 22.7074C29.8555 20.8647 37.5664 18.852 45.2489 16.6691L56.5033 18.7953C44.3134 22.2255 32.8322 24.8335 21.9746 26.7046C22.1447 26.1659 22.2864 25.6273 22.3715 25.0036Z" fill="white"/>
<path d="M41.1651 15.9037C34.4464 18.0015 27.8695 19.8441 21.4627 21.4033C20.6689 20.1276 19.5917 19.2205 19.1098 18.7669C19.0247 18.6818 18.883 18.5968 18.7129 18.4551C23.1069 17.066 27.501 15.6485 31.895 14.1461L41.1651 15.9037Z" fill="white"/>
<path d="M29.7103 13.7492C25.5998 15.2517 21.6026 16.6124 17.7472 17.8031C16.9251 17.2361 15.8478 16.4991 14.7139 15.762C17.4637 14.7131 20.2135 13.6075 22.935 12.4735L29.7103 13.7492Z" fill="white"/>
<path d="M19.366 11.7932C17.1265 12.7287 14.9153 13.6075 12.7041 14.458C11.9954 14.0044 11.3434 13.6075 10.748 13.2673C12.2222 12.5019 13.668 11.7649 15.1137 10.9995L19.366 11.7932Z" fill="white"/>
<path d="M11.539 10.3191C10.4901 10.8577 9.44118 11.368 8.39228 11.8782C8.16549 11.7649 7.9387 11.6231 7.71191 11.4814C8.47733 10.9994 9.24274 10.5175 9.97981 10.0072L11.539 10.3191Z" fill="white"/>
<path d="M54.5718 17.5196L54.2599 17.4629L18.002 10.6309L18.172 10.3474C23.5016 0.935627 35.4647 -2.35282 44.8765 3.00508C50.121 5.98169 53.693 11.2262 54.5718 17.2078V17.5196ZM18.7107 10.2907L54.0331 16.9526C52.3322 6.52032 42.5236 -0.538505 32.0912 1.16242C26.5066 2.06957 21.6022 5.41472 18.7107 10.2907Z" fill="white"/>
</g>
<defs>
<clipPath id="clip0_589_37617">
<rect width="154.755" height="40" fill="white"/>
</clipPath>
</defs>
</svg>
